# File created by Blade
# Date/Time:  Wed Apr 08 17:16:55 2015
#---------------------------------------------------------
:version 1.10
:name HOM
:units
  mass 1.0
  length 1.000000
  angle deg
:documentation
     Acclaim Skeleton File
:root
   axis xyz
   order TX TY TZ RX RY RZ
   position 0.000000 0.000000 0.000000
   orientation 0 0 0
:bonedata
   begin
      id 1
      name Spine_dum
      direction 0.000000 1.000000 0.000000
      length 5.893853
      axis 0.0 0.0 0.0 xyz
   end
   begin
      id 2
      name LeftUpLeg_dum
      direction 1.000000 0.000000 0.000000
      length 3.697939
      axis 0.0 0.0 0.0 xyz
   end
   begin
      id 3
      name RightUpLeg_dum
      direction -1.000000 0.000000 0.000000
      length 3.697939
      axis 0.0 0.0 0.0 xyz
   end
   begin
      id 4
      name Spine
      direction 0.000000 1.000000 0.000000
      length 0.000000
      axis 0.0 0.0 0.0 xyz
      dof rx ry rz
   end
   begin
      id 5
      name Spine_dum1
      direction 0.000000 1.000000 0.000000
      length 16.447146
      axis 0.0 0.0 0.0 xyz
   end
   begin
      id 6
      name Spine_dum2
      direction 0.000000 1.000000 0.000000
      length 10.900383
      axis 0.0 0.0 0.0 xyz
   end
   begin
      id 7
      name Spine_dum3
      direction 0.000000 1.000000 0.000000
      length 10.900383
      axis 0.0 0.0 0.0 xyz
   end
   begin
      id 8
      name Head
      direction 0.000000 1.000000 0.000000
      length 4.527550
      axis 0.0 0.0 0.0 xyz
      dof rx ry rz
   end
   begin
      id 9
      name LeftShoulder
      direction 1.000000 0.000000 0.000000
      length 8.219464
      axis 0.0 0.0 -90.0 xyz
      dof rx ry rz
   end
   begin
      id 10
      name LeftArm
      direction 1.000000 0.000000 0.000000
      length 11.094937
      axis 0.0 0.0 -90.0 xyz
      dof rx ry rz
   end
   begin
      id 11
      name LeftForeArm
      direction 1.000000 0.000000 0.000000
      length 9.103875
      axis 0.0 0.0 -90.0 xyz
      dof ry rz rx
   end
   begin
      id 12
      name LeftHand
      direction 0.000000 0.000000 0.000000
      length 0.000000
      axis 0.0 0.0 -90.0 xyz
      dof rx ry rz
   end
   begin
      id 13
      name LeftHand_dum1
      direction 0.000000 0.000000 0.000000
      length 0.000000
      axis 0.0 0.0 -90.0 xyz
   end
   begin
      id 14
      name LeftHand_dum2
      direction 1.000000 0.000000 0.000000
      length 3.937000
      axis 0.0 0.0 -90.0 xyz
   end
   begin
      id 15
      name LeftHandThumb1
      direction 0.000000 0.000000 1.000000
      length 3.937000
      axis 0.0 0.0 -90.0 xyz
      dof rx rz ry
   end
   begin
      id 16
      name RightShoulder
      direction -1.000000 0.000000 0.000000
      length 8.219464
      axis 0.0 0.0 90.0 xyz
      dof rx ry rz
   end
   begin
      id 17
      name RightArm
      direction -1.000000 0.000000 0.000000
      length 11.094937
      axis 0.0 0.0 90.0 xyz
      dof rx ry rz
   end
   begin
      id 18
      name RightForeArm
      direction -1.000000 0.000000 0.000000
      length 9.103875
      axis 0.0 0.0 90.0 xyz
      dof ry rz rx
   end
   begin
      id 19
      name RightHand
      direction 0.000000 0.000000 0.000000
      length 0.000000
      axis 0.0 0.0 90.0 xyz
      dof rx ry rz
   end
   begin
      id 20
      name RightHand_dum1
      direction 0.000000 0.000000 0.000000
      length 0.000000
      axis 0.0 0.0 90.0 xyz
   end
   begin
      id 21
      name RightHand_dum2
      direction -1.000000 0.000000 0.000000
      length 3.937000
      axis 0.0 0.0 90.0 xyz
   end
   begin
      id 22
      name RightHandThumb1
      direction 0.000000 0.000000 1.000000
      length 3.937000
      axis 0.0 0.0 90.0 xyz
      dof rx rz ry
   end
   begin
      id 23
      name LeftUpLeg
      direction 0.000000 -1.000000 0.000000
      length 16.181467
      axis 0.0 0.0 0.0 xyz
      dof rx ry rz
   end
   begin
      id 24
      name LeftLeg
      direction 0.000000 -1.000000 0.000000
      length 16.501392
      axis 0.0 0.0 0.0 xyz
      dof rx ry rz
   end
   begin
      id 25
      name LeftFoot
      direction 0.000000 -0.258819 0.965926
      length 6.408245
      axis 15.0 0.0 0.0 xyz
      dof rx ry rz
   end
   begin
      id 26
      name LeftToeBase
      direction 0.000000 0.000000 1.000000
      length 2.952750
      axis 0.0 0.0 0.0 xyz
      dof rx ry rz
   end
   begin
      id 27
      name RightUpLeg
      direction 0.000000 -1.000000 0.000000
      length 16.181467
      axis 0.0 0.0 0.0 xyz
      dof rx ry rz
   end
   begin
      id 28
      name RightLeg
      direction 0.000000 -1.000000 0.000000
      length 16.501392
      axis 0.0 0.0 0.0 xyz
      dof rx ry rz
   end
   begin
      id 29
      name RightFoot
      direction 0.000000 -0.258819 0.965926
      length 6.408245
      axis 15.0 0.0 0.0 xyz
      dof rx ry rz
   end
   begin
      id 30
      name RightToeBase
      direction 0.000000 0.000000 1.000000
      length 2.952750
      axis 0.0 0.0 0.0 xyz
      dof rx ry rz
   end
:hierarchy
   begin
      root Spine_dum LeftUpLeg_dum RightUpLeg_dum
      Spine_dum Spine
      LeftUpLeg_dum LeftUpLeg
      RightUpLeg_dum RightUpLeg
      Spine Spine_dum1 Spine_dum2 Spine_dum3
      Spine_dum1 Head
      Spine_dum2 LeftShoulder
      Spine_dum3 RightShoulder
      LeftShoulder LeftArm
      LeftArm LeftForeArm
      LeftForeArm LeftHand
      LeftHand LeftHand_dum1 LeftHand_dum2
      LeftHand_dum1 LeftHandThumb1
      RightShoulder RightArm
      RightArm RightForeArm
      RightForeArm RightHand
      RightHand RightHand_dum1 RightHand_dum2
      RightHand_dum1 RightHandThumb1
      LeftUpLeg LeftLeg
      LeftLeg LeftFoot
      LeftFoot LeftToeBase
      RightUpLeg RightLeg
      RightLeg RightFoot
      RightFoot RightToeBase
   end

# File created by Blade
# Date/Time:  Wed Apr 08 17:17:01 2015
# Frame Rate: 120.000 fps
#------------------------------------------------------
:FULLY-SPECIFIED
:DEGREES
168
root 5.104843 36.004063 1.061248 -28.093929 -75.299934 22.419536
Spine 12.783336 1.504975 -4.643460
Head 4.632285 16.085377 0.744411
LeftShoulder -9.295758 20.297911 15.611860
LeftArm 16.045373 9.438129 -83.979964
LeftForeArm 26.544827 -0.000000 37.610181
LeftHand -12.151385 -0.000000 -12.447604
LeftHandThumb1 -26.253704 0.000000 33.147579
RightShoulder -33.004580 -48.892461 8.556492
RightArm 49.923150 -3.914687 57.792130
RightForeArm 0.134171 -0.000000 35.778114
RightHand -1.638499 -0.000000 10.789707
RightHandThumb1 -24.326973 -0.000000 -32.862282
LeftUpLeg 6.979192 21.963775 -5.032739
LeftLeg 7.309648 -0.000000 -0.000000
LeftFoot -12.057315 13.119782 -11.709395
LeftToeBase 7.025365 -0.000000 -0.000000
RightUpLeg 4.463585 -12.409575 -18.587656
RightLeg 27.593467 -0.000000 -0.000000
RightFoot -15.594153 -5.183092 25.302486
RightToeBase 1.182798 -0.000000 -0.000000
169
root 5.098720 35.999905 1.178678 -27.667416 -75.067518 21.924949
Spine 12.792210 1.477695 -4.713615
Head 4.652945 16.117948 0.878362
LeftShoulder -9.342676 20.476022 15.508696
LeftArm 16.252379 10.734924 -83.993299
LeftForeArm 26.562162 -0.000000 36.831074
LeftHand -11.813544 -0.000000 -13.592545
LeftHandThumb1 -26.253704 0.000000 33.147579
RightShoulder -33.130051 -48.926403 8.870813
RightArm 50.122458 -4.742664 57.546710
RightForeArm -0.004274 -0.000000 35.992200
RightHand -1.500344 -0.000000 10.876452
RightHandThumb1 -24.326973 -0.000000 -32.862282
LeftUpLeg 7.161799 21.707357 -5.182175
LeftLeg 7.170310 -0.000000 -0.000000
LeftFoot -12.101008 13.145926 -11.613860
LeftToeBase 6.970690 -0.000000 -0.000000
RightUpLeg 3.715540 -11.932265 -18.656239
RightLeg 29.272421 -0.000000 -0.000000
RightFoot -15.380193 -5.537363 25.075800
RightToeBase 0.645436 -0.000000 -0.000000
170
root 5.092168 35.995331 1.289576 -27.226816 -74.855646 21.383109
Spine 12.844114 1.462711 -4.773444
Head 4.665137 16.118668 1.048402
LeftShoulder -9.363871 20.625127 15.425482
LeftArm 16.417497 11.892713 -84.009528
LeftForeArm 26.615453 -0.000000 36.107303
LeftHand -11.434940 -0.000000 -13.967643
LeftHandThumb1 -26.253704 0.000000 33.147579
RightShoulder -33.195080 -48.953793 9.133549
RightArm 50.273709 -5.543937 57.363735
RightForeArm 0.005044 -0.000000 36.232730
RightHand -1.336634 -0.000000 10.810984
RightHandThumb1 -24.326973 -0.000000 -32.862282
LeftUpLeg 7.358614 21.487332 -5.276507
LeftLeg 7.075631 -0.000000 -0.000000
LeftFoot -12.160236 13.138380 -11.538784
LeftToeBase 6.921837 -0.000000 -0.000000
RightUpLeg 2.965878 -11.417397 -18.669152
RightLeg 30.984434 -0.000000 -0.000000
RightFoot -15.206067 -6.032766 24.573050
RightToeBase 0.375889 -0.000000 -0.000000
171
root 5.084352 35.990636 1.395554 -26.832271 -74.633233 20.876404
Spine 12.896332 1.468007 -4.848139
Head 4.710256 16.096910 1.225491
LeftShoulder -9.372724 20.789951 15.348772
LeftArm 16.664969 13.169248 -83.943379
LeftForeArm 26.537403 -0.000000 35.340613
LeftHand -11.355454 -0.000000 -13.704029
LeftHandThumb1 -26.253704 0.000000 33.147579
RightShoulder -33.279040 -49.008880 9.427049
RightArm 50.408660 -6.276692 57.266565
RightForeArm -0.002496 -0.000000 36.510563
RightHand -1.179059 -0.000000 10.704185
RightHandThumb1 -24.326973 -0.000000 -32.862282
LeftUpLeg 7.561563 21.300559 -5.356648
LeftLeg 6.999041 -0.000000 -0.000000
LeftFoot -12.225273 13.084504 -11.489106
LeftToeBase 6.907367 -0.000000 -0.000000
RightUpLeg 2.215760 -10.909675 -18.672353
RightLeg 32.721086 -0.000000 -0.000000
RightFoot -15.091583 -6.547183 23.977324
RightToeBase 0.305837 -0.000000 -0.000000
172
root 5.077215 35.985439 1.499697 -26.470913 -74.403722 20.385850
Spine 12.970648 1.446942 -4.924711
Head 4.767236 16.106350 1.391951
LeftShoulder -9.367526 20.966079 15.265049
LeftArm 16.896336 14.334417 -83.874089
LeftForeArm 26.476757 0.000000 34.642516
LeftHand -11.216056 0.000000 -13.753291
LeftHandThumb1 -26.253704 0.000000 33.147579
RightShoulder -33.347554 -49.101998 9.702894
RightArm 50.572972 -6.991932 57.158683
RightForeArm 0.034598 -0.000000 36.819992
RightHand -1.175317 -0.000000 10.446296
RightHandThumb1 -24.326973 -0.000000 -32.862282
LeftUpLeg 7.764200 21.091254 -5.435135
LeftLeg 6.958619 -0.000000 -0.000000
LeftFoot -12.306898 13.033353 -11.439222
LeftToeBase 6.940203 -0.000000 -0.000000
RightUpLeg 1.464805 -10.418132 -18.669244
RightLeg 34.500751 -0.000000 -0.000000
RightFoot -15.062031 -7.026442 23.288459
RightToeBase 0.302356 -0.000000 -0.000000
173
root 5.064760 35.981602 1.595337 -25.974469 -74.153226 19.720945
Spine 13.091803 1.438952 -4.963138
Head 4.801097 16.059009 1.586794
LeftShoulder -9.356719 21.103363 15.175694
LeftArm 17.147761 15.412109 -83.777962
LeftForeArm 26.438099 -0.000000 33.929533
LeftHand -11.049212 -0.000000 -13.892874
LeftHandThumb1 -26.253704 0.000000 33.147579
RightShoulder -33.496317 -49.189770 10.064052
RightArm 50.732732 -7.640077 57.094868
RightForeArm 0.229509 -0.000000 37.116061
RightHand -1.049632 -0.000000 10.263413
RightHandThumb1 -24.326973 -0.000000 -32.862282
LeftUpLeg 8.001154 20.886364 -5.432474
LeftLeg 6.938880 -0.000000 -0.000000
LeftFoot -12.401763 12.921808 -11.410831
LeftToeBase 6.930248 -0.000000 -0.000000
RightUpLeg 0.767943 -9.940874 -18.610203
RightLeg 36.299746 -0.000000 -0.000000
RightFoot -15.137908 -7.371857 22.794932
RightToeBase 0.299747 -0.000000 -0.000000
174
root 5.058048 35.978647 1.684031 -25.513861 -73.942094 19.126940
Spine 13.186814 1.468262 -5.006726
Head 4.806585 16.033391 1.770645
LeftShoulder -9.364094 21.277837 15.067231
LeftArm 17.490961 16.479354 -83.600198
LeftForeArm 26.321010 -0.000000 33.156792
LeftHand -10.815083 -0.000000 -13.971422
LeftHandThumb1 -26.253704 0.000000 33.147579
RightShoulder -33.608304 -49.263493 10.412477
RightArm 50.855431 -8.229229 57.082047
RightForeArm 0.584662 0.000000 37.438245
RightHand -0.965664 0.000000 10.075512
RightHandThumb1 -24.326973 -0.000000 -32.862282
LeftUpLeg 8.140345 20.801792 -5.424007
LeftLeg 7.019120 -0.000000 -0.000000
LeftFoot -12.477949 12.765537 -11.308407
LeftToeBase 6.863718 -0.000000 -0.000000
RightUpLeg -0.039077 -9.382762 -18.496838
RightLeg 38.210766 -0.000000 -0.000000
RightFoot -15.266061 -7.648285 22.390937
RightToeBase 0.217189 -0.000000 -0.000000
